<svg width="750" height="205" viewBox="0 0 750 205" fill="none" xmlns="http://www.w3.org/2000/svg">
<path d="M114.679 25.6791L24.7399 76.3502L19.2052 90.6814L19.2052 101.43L22.4338 113.202L27.046 123.95L114.679 75.8384V25.6791Z" fill="#43D9B8"/>
<path d="M114.679 25.6791L24.7399 76.3502L19.2052 90.6814L19.2052 101.43L22.4338 113.202L27.046 123.95L114.679 75.8384V25.6791Z" fill="url(#paint0_linear)"/>
<path d="M80.3705 171.778L170.129 120.713L175.612 106.358L175.574 95.6098L172.304 83.8519L167.653 73.1238L80.1922 121.619L80.3705 171.778Z" fill="#43D9B8"/>
<path d="M80.3705 171.778L170.129 120.713L175.612 106.358L175.574 95.6098L172.304 83.8519L167.653 73.1238L80.1922 121.619L80.3705 171.778Z" fill="url(#paint1_linear)"/>
<g filter="url(#filter0_d)">
<path d="M25.6624 141.864L115.14 191V141.864L25.6624 92.7287C21.6072 89.1327 22.2343 84.9706 25.6624 75.8384C-4.31729 102.965 16.2841 133.846 25.6624 141.864Z" fill="#3E9A86"/>
</g>
<g filter="url(#filter1_d)">
<path d="M168.973 55.2038L79.3214 6.4604L79.4961 55.5956L169.148 104.339C173.216 107.917 172.604 112.082 169.208 121.229C199.091 93.9713 178.38 63.1814 168.973 55.2038Z" fill="#3E9A86"/>
</g>
<path d="M281.114 140L263.594 108.2H258.674V140H238.154V55.76H272.594C279.234 55.76 284.874 56.92 289.514 59.24C294.234 61.56 297.754 64.76 300.074 68.84C302.394 72.84 303.554 77.32 303.554 82.28C303.554 87.88 301.954 92.88 298.754 97.28C295.634 101.68 290.994 104.8 284.834 106.64L304.274 140H281.114ZM258.674 93.68H271.394C275.154 93.68 277.954 92.76 279.794 90.92C281.714 89.08 282.674 86.48 282.674 83.12C282.674 79.92 281.714 77.4 279.794 75.56C277.954 73.72 275.154 72.8 271.394 72.8H258.674V93.68ZM379.555 105.44C379.555 107.36 379.435 109.36 379.195 111.44H332.755C333.075 115.6 334.395 118.8 336.715 121.04C339.115 123.2 342.035 124.28 345.475 124.28C350.595 124.28 354.155 122.12 356.155 117.8H377.995C376.875 122.2 374.835 126.16 371.875 129.68C368.995 133.2 365.355 135.96 360.955 137.96C356.555 139.96 351.635 140.96 346.195 140.96C339.635 140.96 333.795 139.56 328.675 136.76C323.555 133.96 319.555 129.96 316.675 124.76C313.795 119.56 312.355 113.48 312.355 106.52C312.355 99.56 313.755 93.48 316.555 88.28C319.435 83.08 323.435 79.08 328.555 76.28C333.675 73.48 339.555 72.08 346.195 72.08C352.675 72.08 358.435 73.44 363.475 76.16C368.515 78.88 372.435 82.76 375.235 87.8C378.115 92.84 379.555 98.72 379.555 105.44ZM358.555 100.04C358.555 96.52 357.355 93.72 354.955 91.64C352.555 89.56 349.555 88.52 345.955 88.52C342.515 88.52 339.595 89.52 337.195 91.52C334.875 93.52 333.435 96.36 332.875 100.04H358.555ZM431.3 140L410.9 111.92V140H390.38V51.2H410.9V100.28L431.18 73.04H456.5L428.66 106.64L456.74 140H431.3ZM485.08 84.2C487.48 80.52 490.48 77.64 494.08 75.56C497.68 73.4 501.68 72.32 506.08 72.32V94.04H500.44C495.32 94.04 491.48 95.16 488.92 97.4C486.36 99.56 485.08 103.4 485.08 108.92V140H464.56V73.04H485.08V84.2ZM582.008 73.04V140H561.488V130.88C559.408 133.84 556.568 136.24 552.968 138.08C549.448 139.84 545.528 140.72 541.208 140.72C536.088 140.72 531.568 139.6 527.648 137.36C523.728 135.04 520.688 131.72 518.528 127.4C516.368 123.08 515.288 118 515.288 112.16V73.04H535.688V109.4C535.688 113.88 536.848 117.36 539.168 119.84C541.488 122.32 544.608 123.56 548.528 123.56C552.528 123.56 555.688 122.32 558.008 119.84C560.328 117.36 561.488 113.88 561.488 109.4V73.04H582.008ZM634.068 122.6V140H623.628C616.188 140 610.388 138.2 606.228 134.6C602.068 130.92 599.988 124.96 599.988 116.72V90.08H591.828V73.04H599.988V56.72H620.508V73.04H633.948V90.08H620.508V116.96C620.508 118.96 620.988 120.4 621.948 121.28C622.908 122.16 624.508 122.6 626.748 122.6H634.068ZM666.018 51.2V140H645.498V51.2H666.018ZM749.288 73.04L707.288 171.8H685.208L700.568 137.72L673.328 73.04H696.248L711.728 114.92L727.088 73.04H749.288Z" fill="white"/>
<defs>
<filter id="filter0_d" x="0" y="69.8384" width="125.14" height="135.162" filterUnits="userSpaceOnUse" color-interpolation-filters="sRGB">
<feFlood flood-opacity="0" result="BackgroundImageFix"/>
<feColorMatrix in="SourceAlpha" type="matrix" values="0 0 0 0 0 0 0 0 0 0 0 0 0 0 0 0 0 0 127 0" result="hardAlpha"/>
<feOffset dy="4"/>
<feGaussianBlur stdDeviation="5"/>
<feColorMatrix type="matrix" values="0 0 0 0 0 0 0 0 0 0 0 0 0 0 0 0 0 0 0.25 0"/>
<feBlend mode="normal" in2="BackgroundImageFix" result="effect1_dropShadow"/>
<feBlend mode="normal" in="SourceGraphic" in2="effect1_dropShadow" result="shape"/>
</filter>
<filter id="filter1_d" x="69.3214" y="0.460403" width="125.436" height="134.769" filterUnits="userSpaceOnUse" color-interpolation-filters="sRGB">
<feFlood flood-opacity="0" result="BackgroundImageFix"/>
<feColorMatrix in="SourceAlpha" type="matrix" values="0 0 0 0 0 0 0 0 0 0 0 0 0 0 0 0 0 0 127 0" result="hardAlpha"/>
<feOffset dy="4"/>
<feGaussianBlur stdDeviation="5"/>
<feColorMatrix type="matrix" values="0 0 0 0 0 0 0 0 0 0 0 0 0 0 0 0 0 0 0.25 0"/>
<feBlend mode="normal" in2="BackgroundImageFix" result="effect1_dropShadow"/>
<feBlend mode="normal" in="SourceGraphic" in2="effect1_dropShadow" result="shape"/>
</filter>
<linearGradient id="paint0_linear" x1="98.0748" y1="60.4835" x2="-33.3762" y2="127.55" gradientUnits="userSpaceOnUse">
<stop stop-color="#0F052F"/>
<stop offset="0.298031" stop-color="#3F3759" stop-opacity="0.798822"/>
<stop offset="1" stop-color="white" stop-opacity="0"/>
</linearGradient>
<linearGradient id="paint1_linear" x1="96.8507" y1="136.901" x2="228.095" y2="69.3229" gradientUnits="userSpaceOnUse">
<stop stop-color="#0F052F"/>
<stop offset="0.298031" stop-color="#3F3759" stop-opacity="0.798822"/>
<stop offset="1" stop-color="white" stop-opacity="0"/>
</linearGradient>
</defs>
</svg>
